<?xml version="1.0" encoding="UTF-8"?>
<svg version="1.1" viewBox="0 0 1108 1108" width="277" height="277" xmlns="http://www.w3.org/2000/svg">
<path transform="translate(0)" d="m0 0h1108v1108h-1108z" fill="#27293F"/>
<path transform="translate(321,374)" d="m0 0h30l24 4 22 8 19 10 11 8-1 3-20-7-13-3-24-2h-12l-23 2-26 7-26 10-17 10-10 7-14 11-6 6h-2l-2 4-7 8-12 16-11 20-7 16-3 9-2 10-2 13-2 10v36l6 28 6 17 8 16 12 22 5 7-1 3-9-6-9-10-11-14-12-19-8-18-8-23-4-20-1-13v-22l2-20 5-18 9-25 7-13 12-18 9-10 7-8 7-7h2v-2l13-10 19-12 21-9 17-6 11-3z" fill="#F6C3FA"/>
<path transform="translate(330,416)" d="m0 0h3l-2 4-10 9-8 7-7 8-10 10-8 10-11 15-10 17-6 12-8 24-4 16v41l3 10 4 16 6 15 7 13 10 15 9 11 9 10 10 9 17 12 16 9 26 10 10 3 16 3 21 2v2l-8 2h-18l-8-1-22-1-7-2-13-2-16-5-21-9-15-8-13-10-8-7-9-9-10-13-9-15-8-17-5-17-3-13-2-21v-20l2-20 6-24 12-25 7-11 8-10 11-12 14-14 26-17 15-7 9-4z" fill="#F6C3FA"/>
<path transform="translate(300,631)" d="m0 0 4 1 10 9 14 8 9 6 26 11 14 5 10 3 10 2 15 2 4 1h57l8-2 15-2 19-5 16-6 6-3 3 1-2 3h-2v2l-13 10-18 11-14 6-22 6-18 4h-31l-24-5-26-8-16-8-14-8-12-9-17-17-10-14z" fill="#F6C3FA"/>
<path transform="translate(639,480)" d="m0 0 17 1 2 4 5 26 1 3h2l7-30 3-4 17 1 1 1v62l-1 1h-14l-2-4-1-18-2 10-3 11-1 1h-9l-2-1-3-12-2-14-1 5-1 21-1 1h-13l-1-1v-63z" fill="#F6C3FA"/>
<path transform="translate(315,480)" d="m0 0h12l3 5 6 21 6 24 2 10-1 5h-12l-2-1-1-8h-13l-2 7-2 2h-11v-8l5-19 7-32 1-5z" fill="#F6C3FA"/>
<path transform="translate(587,496)" d="m0 0 8 1 8 5 5 6 2 6v16l-5 10-6 5-4 1h-12l-6-3-6-8-3-11 1-10 5-10 6-5z" fill="#F6C3FA"/>
<path transform="translate(316,365)" d="m0 0h27l15 2 2 1h6l11 3 6 1 15 6v2l4 1 2 2 3 4v2l-6-2-14-6-12-4h-13l-11-2h-30l-21 3-16 5-17 6-18 8-24 16-5 1-1 2-5 2-1-3 4-2 1-2h2l1-3-3 1-5 4-2-1 10-9 5-4 4-1 1-3 19-9 9-5 18-6 10-3 5-1 14-2 3-2z" fill="#20293A"/>
<path transform="translate(790,479)" d="m0 0 10 1 2 3v14l-1 11 6-5 3-3 2-1h12l1 2-1 3-5 4-6 7v5l14 22-1 3h-12l-3-1-8-12-1-1v12l-2 2h-11l-1-1v-64z" fill="#F6C3FA"/>
<path transform="translate(719,496)" d="m0 0 9 1 8 5 5 6 1 2 1 11v20l-2 4-28 1-6-3-3-4-1-9 2-6 5-4 8-3 8-1-1-5-4-1-7 6-8-3-1-5 4-6 5-4z" fill="#F6C3FA"/>
<path transform="translate(475,496)" d="m0 0 7 1 6 4 5 8 1 20v14l-1 2h-14l-1-1-1-34h-7l-1 1-1 33-1 1h-14l-1-1v-44l1-1h17z" fill="#F6C3FA"/>
<path transform="translate(848,496)" d="m0 0 8 1 8 5 6 9 1 3v11l-5 1h-9l-11 1v5l1 3h7l3-8 7 1 4-1v9l-4 6-4 3-3 1h-14l-6-4-5-6-3-7v-14l5-10 7-6z" fill="#F6C3FA"/>
<path transform="translate(422,496)" d="m0 0h6l11 6 5 7 1 3v12l-3 2h-10l-12 1 2 7 1 1h5l2-7 8-1 5 1-1 9-7 8-4 1h-14l-6-4-4-6-3-10v-8l3-10 6-8z" fill="#F6C3FA"/>
<path transform="translate(516,496)" d="m0 0 8 1 6 4 6 7-1 5-10 3-6-6-4 1 1 3 14 7 6 5 1 2v9l-4 6-9 3h-12l-6-3-5-6-1-7 6-2 6 1 3 4v2h7l1-5-6-2-12-6-5-6v-7l6-8 6-4z" fill="#F6C3FA"/>
<path transform="translate(928,496)" d="m0 0 8 1 6 4 6 7-1 5-4 2h-7l-2-4-6-1v4l16 8 4 4 1 3v7l-3 5-5 4-5 1h-12l-6-3-6-9 1-5 9-1 5 5v2h9l-3-5-16-8-4-4v-10l3-6 6-4z" fill="#F6C3FA"/>
<path transform="translate(882,480)" d="m0 0 12 1 2 1 1 16 9 1 2 3-1 7-4 1h-7l1 23 1 2 9 1 3 4-2 4-5 2h-11l-5-3-5-6-1-3-1-24-5-2v-7l5-3 1-17z" fill="#F6C3FA"/>
<path transform="translate(877,485)" d="m0 0h2l1 5v7l-4 1-2-1-1 5 1 6 4 1 2 1 1 28-2 2v-2l-8-1-2-4v-5l1-1v-13l-6-12-5-2-6-3-8 1-8 5-4 5-3 7-1 18-6-2-2-4-4-2-5-5v-5l10-11 3-1 1-3h2l1-4 3-3 4-3 9-1 12 2h9l2-3z" fill="#20293A"/>
<path transform="translate(194,513)" d="m0 0h3l1 5-3-1 1 7 1 11-3 9-2 2 1 5v17l-2 10v4l3 1-1 9 3 5 6 17 2 9 4 11 3 5 3 9 1 1v5l2 2-6-1-1-1-2 2-3-7-2-4-4-4-6-14-5-17-4-20v-36l1-5h2l1-3v-10l5-18z" fill="#20293A"/>
<path transform="translate(380,480)" d="m0 0h16v65h-15l-1-1z" fill="#F6C3FA"/>
<path transform="translate(628,482)" d="m0 0 1 2-1 8h2l-1-4 2-4 4-1-1 3-1 2v17l1 1v18l2 5v7l-2 7-2 2h-3l-3-8-1-5-4-3v2h-4l-2 1v-5-2h-2l-3-13v-2h-2l-3-7-9-7-2-2 7-2 8 2 7 3 4 5 2 4v-9h1l2-8h1z" fill="#20293A"/>
<path transform="translate(355,480)" d="m0 0h12l1 1v63l-1 1h-12l-1-3v-57z" fill="#F6C3FA"/>
<path transform="translate(328,478)" d="m0 0h3v2h5l5 6 2-3h2v-3l3-1 1 4-1 5 2 12 1 2-1 7 1 5 2 5v19l-1 1v5l3 2v8l-7-6-1-3v-3h-2l-2-8v-4h-2l-8-31-5-19z" fill="#20293A"/>
<path transform="translate(779,485)" d="m0 0 3 3 4-1 1 3v52l-3 1-4-3 1 6-2 1 1 3-10 3-5 1 4-4 4-1 1-4-1-4 1-4-4 4-3-2v-23l3-4 9-2 2-3v-6l-4-6-4-1 4-1 1-5z" fill="#20293A"/>
<path transform="translate(771,496)" d="m0 0 6 1 3 3v8l-4 3-9 1-1 3-1 29-1 1h-11l-1-1v-45h16z" fill="#F6C3FA"/>
<path transform="translate(697,485)" d="m0 0 6 1 1 4 10-1 2 2h-2l1 5-8 10-1 6 8 3 7-6 5 2 1 5-1 1-11 2-8 4-2 2-2 16-4 1-1 2-2-3-1-13v-29l1-11z" fill="#20293A"/>
<path transform="translate(316,365)" d="m0 0h27l15 2 2 1h6l11 3 6 1 15 6v2l4 1 2 2 3 4v2l-6-2-14-6-12-4-10-1-4-1-14-2h-26l-7 2-13 1h-3l-3-1 1-1h-6l4-4 12-1 3-2z" fill="#20293A"/>
<path transform="translate(546,499)" d="m0 0h13l2 2v43l-1 1h-13l-2-1v-44z" fill="#F6C3FA"/>
<path transform="translate(398,481)" d="m0 0 9 4 1 4 12-1 1 3-3 3v3h-3v3l-5 5-4 8-1 5v14l1 4v6l5 3-1 4 2 4h-4l-5-2h-3l-1-5-1-1-1-30z" fill="#20293A"/>
<path transform="translate(374,475)" d="m0 0h2l1 3 2 1v66l-5 1-4-3-1-21v-43l3-3z" fill="#20293A"/>
<path transform="translate(210,575)" d="m0 0 2 1 2 15h1v-8h3v18l2 4v2h1v7l3 6 2 8v4l2 2v2h-2l1 5 3 3 3 7 3 3 3 1 2 7v5l-6-2-3-7v-3l-3-1-3-6v-2h-2l-1-6-3-4v-5l-3-1-1-5v-6h-2v-3l-2-1-2-9v-5-3l1-3-1-10-1-5z" fill="#20293A"/>
<path transform="translate(428,490)" d="m0 0 10 3h4l5-1v2l8-1 1 2h-5l-1 4 1 1 1 17v20l-2 10-2 3h-6l-2 3-3-1 1-2-2-1v-4h4l2 1-2-4 3-3 1-11 1-2v-15l-1-3-8-7-2-1v-3l-11-2v-2l5-1-3-1z" fill="#20293A"/>
<path transform="translate(842,489)" d="m0 0 12 2 1 2h-12l-3 2 2 2-9 8-4 9v19l-6-2-2-4-4-2-5-5v-5l10-11 3-1 1-3h2l1-4 3-3 4-3z" fill="#20293A"/>
<path transform="translate(255,541)" d="m0 0 2 3-1 26-1 9 2 9v9l2 1 1 4 2 3 4 13 1 7-6-2-4-8-4-12v-6h2l-2-6-4-4v-19l2-6-2 1v-13l2-5h4z" fill="#20293A"/>
<path transform="translate(326,643)" d="m0 0h7l5 3 13 6 10 4 16 6v2l4-1v2l6 1 2 1 1 5-9-1-4-2-8-2-4-3-7-1-22-10-10-6-1-3z" fill="#20293A"/>
<path transform="translate(490,667)" d="m0 0h4l8 1 2 3-8 3-7 2-11 1-10 2h-14l-11-1 3-1v-2h-9l-1-2h23l10-1v-2l13-2h7z" fill="#20293A"/>
<path transform="translate(577,488)" d="m0 0 9 1-1 3h4v2l-9 3-2 1-1 4-6 9-2 8v13l1 3-3 1-1-8-3 1v-10l2-1v-6l-2-10 1-2h2l-1-3 1-2h-2v-2l4-2 7-2z" fill="#20293A"/>
<path transform="translate(728,492)" d="m0 0 5 1 7 3 5-2 3 3 2 3 1 45-7 1v-14l-1-23-2-4v-3l-5-2-1-3-7-4z" fill="#20293A"/>
<path transform="translate(662,477)" d="m0 0 7 1v4l3 1v10l-5 21h-4l-1-3-1-12-3-16v-2z" fill="#21293A"/>
<path transform="translate(537,487)" d="m0 0 6 2 5 4 4 2 3-1 5-1-1 5h-13l-2 4v30l-1-2-4-1v-7h2l-1-2-3 2-1-4-5-1 2-2h5l1 1 1-2 2-1-3-1 1-2v-3l-5-4 1-3-2-8h2z" fill="#20293A"/>
<path transform="translate(364,581)" d="m0 0h9l2 2 1 13-3 6-1 1h-9l-1-1v-20z" fill="#F6C3FA"/>
<path transform="translate(908,508)" d="m0 0 4 2v10l-2 1 4 5-1 3h-2v2l-10-3-3 3-1-5v-10l1-5 8-1z" fill="#20293A"/>
<path transform="translate(489,580)" d="m0 0 4 2v21l-12 1-2-3-1-8 2-5h8v-7z" fill="#F6C3FA"/>
<path transform="translate(898,480)" d="m0 0 1 2 4-1 5 6 2 4 3 1 5-3h7l2 2-4 2-1 2h-3l3 2-10 2-3-2-2 1v-2h-10v-9z" fill="#20293A"/>
<path transform="translate(587,509)" d="m0 0 5 1 2 3v20l-2 3-5-1-3-4v-19z" fill="#20293A"/>
<path transform="translate(507,489)" d="m0 0h7v2l8-1 1 2-6 1-9 1-8 4 1 5-1 7-1 3-4 1-3-9-5-4-3-5h3v-2h-2l1-2 10 5v-3l4-1z" fill="#20293A"/>
<path transform="translate(877,510)" d="m0 0h3l1 28-2 2v-2l-8-1-2-4v-5l4-5 2-10z" fill="#20293A"/>
<path transform="translate(549,477)" d="m0 0h7l5 4v7l-5 5h-6l-5-5v-7z" fill="#F6C3FA"/>
<path transform="translate(452,587)" d="m0 0 6 1 3 6-1 7-4 3h-7l-3-4v-9l2-3z" fill="#F6C3FA"/>
<path transform="translate(321,372)" d="m0 0h26l14 2 10 2v1h-9l-11-2h-30l-21 3-16 5-7 1v-2l10-4v-3l5-2h5l-1 2 5-1v2l4-1 14-2z" fill="#27293F"/>
<path transform="translate(470,587)" d="m0 0 5 2 2 4v9l-3 2h-9l-3-5 2-10z" fill="#F6C3FA"/>
<path transform="translate(381,588)" d="m0 0h9l3 6v6l-4 3h-8l-3-4v-7z" fill="#F6C3FA"/>
<path transform="translate(396,588)" d="m0 0h3l3 9 2-9 4 1 1 8 2-8h4v11l-4 3h-4l-1-4-2 4-5-1-3-6z" fill="#F6C3FA"/>
<path transform="translate(421,588)" d="m0 0h11l3 3 1 3v9l-6 1-1-1v-10l-3-1v9l-2 3-4-1v-14z" fill="#F6C3FA"/>
<path transform="translate(314,686)" d="m0 0 4 1 3 2 10 6 7 4 4 3 2 1 4 5-2 1-11-4-5-3-3-3v-2l-5-1-2-1v-2l-6-2-3-4z" fill="#20293A"/>
<path transform="translate(804,480)" d="m0 0 2 2h3l3 1 3 7 1 6-8 5-4 3-1-1v-21z" fill="#20293A"/>
<path transform="translate(299,455)" d="m0 0 1 4-3 4-1 4-6 8-4 6-4 7-1 3h-3v4l-4 2-2 2 1-4 3-7v-3l4-5 3-1 2-4 2-2-3-1 7-2v-8h2v-2l4-1v-3z" fill="#20293A"/>
<path transform="translate(507,581)" d="m0 0h8l5 6-2 1-5-2-4 1v13l6-4 3 1-2 5-3 2-6-1-3-4v-15z" fill="#F6C3FA"/>
<path transform="translate(567,588)" d="m0 0 7 1 1 1v10l-3 4h-6l-4-5v-8z" fill="#F6C3FA"/>
<path transform="translate(520,588)" d="m0 0 5 1 1 4v6l4-1-1-9 5-1 2 2v12l-3 2h-7l-5-5-1-3z" fill="#F6C3FA"/>
<path transform="translate(151,565)" d="m0 0 2 3-1 2 2 1v6l2-4 2 7h-2l1 4h3l2 6v5l-2 2 2 7-5-5-2-3v-5l-4-2-1-9h2l-1-5-1-8z" fill="#20293A"/>
<path transform="translate(313,589)" d="m0 0h8l4 3-2 9-2 2h-7l-3-3v-8z" fill="#F6C3FA"/>
<path transform="translate(465,702)" d="m0 0h5l-2 4-10 2-8 2-8 1h-18l-4-2 1-3h32l4-1z" fill="#20293A"/>
<path transform="translate(601,588)" d="m0 0 6 1 2 11-3 3h-7l-3-3v-10z" fill="#F6C3FA"/>
<path transform="translate(471,511)" d="m0 0 5 1v31l-5 1-1-6 1-4v-11l-2-1 2-10z" fill="#20293A"/>
<path transform="translate(330,581)" d="m0 0 3 1 2 8-1 9 6 1-1-9-3-3 7 1v10l-4 4h-7l-3-4v-17z" fill="#F6C3FA"/>
<path transform="translate(584,588)" d="m0 0h6l3 7v8h-5l-1-13h-4v13h-4v-14z" fill="#F6C3FA"/>
<path transform="translate(317,538)" d="m0 0h10l1 1v6l-6 1-1 1 1 4-6 1h-2l-1-5 1-2h2v-6z" fill="#20293A"/>
<path transform="translate(843,492)" d="m0 0 12 1 4 4 5 3v2l-5-2-6-3-8 1-8 5-4 5-3 7-1 14h-1v-15l5-10 8-7-2-3z" fill="#282940"/>
<path transform="translate(721,509)" d="m0 0 5 2 1 5-1 1-11 2-7 2-1-7 7 1z" fill="#282940"/>
<path transform="translate(162,605)" d="m0 0 7 4v11l2 3 1 8h-3l-1-4v-5h-2l-1 2-3-6 1-5 2 2v-3l-4 1-1-4h2z" fill="#20293A"/>
<path transform="translate(298,581)" d="m0 0 4 1 1 17 5 2v2h-10l-1-3z" fill="#F6C3FA"/>
<path transform="translate(948,514)" d="m0 0h4v9l3 5-1 2h-1l-2 7h-1v-8h-2l-4-9 1-4z" fill="#20293A"/>
<path transform="translate(370,701)" d="m0 0h5v1l13 1v2l9 2 10 3 7 1-1 2h-9l-5-3-10-1-11-4-9-2z" fill="#20293A"/>
<path transform="translate(373,736)" d="m0 0h7l1 4-17 3-3-1v-2h-3l-1-3z" fill="#20293A"/>
<path transform="translate(410,672)" d="m0 0h12l7 1-1 2h-2v2l2-1h8l1 2-16 1-11-3-1-3z" fill="#20293A"/>
<path transform="translate(857,525)" d="m0 0m-11 1h11l-2 9-1 1-7-1-2-3v-5z" fill="#27293F"/>
<path transform="translate(719,526)" d="m0 0h7l1 5-4 5h-6l-2-3 1-5z" fill="#282940"/>
<path transform="translate(175,638)" d="m0 0h2l3 5 3 3 5 9 4 5 1 4h2l1 3 5 5 1 2-4-1-3-3v-2l-2-1-4-8-4-2-4-6-3-6-3-5z" fill="#20293A"/>
<path transform="translate(440,581)" d="m0 0 3 1v21h-4v-21z" fill="#F6C3FA"/>
<path transform="translate(622,588)" d="m0 0h2l-2 11-4 8-4 2 1-5 6-15z" fill="#F6C3FA"/>
<path transform="translate(266,387)" d="m0 0 3 1-20 9-18 12h-3l6-5h2v-2l6-2v-2l8-5z" fill="#282940"/>
<path transform="translate(344,588)" d="m0 0h5l2 3v11l-1 1h-6l-1-3h4l-1-7z" fill="#F6C3FA"/>
<path transform="translate(368,584)" d="m0 0h4v13l-2 3-4-1 1-14z" fill="#282940"/>
<path transform="translate(295,521)" d="m0 0h2l2 8-1 5-4 1-2-3 1-7z" fill="#21293B"/>
<path transform="translate(299,505)" d="m0 0h2l1 3 2 1 1-2 1 5-1 5-2-3h-3l-1 2h-3l1-9z" fill="#20293A"/>
<path transform="translate(846,510)" d="m0 0h8l2 3-1 4h-7l-3-1v-5z" fill="#27293F"/>
<path transform="translate(864,502)" d="m0 0 5 3 2 6h6l-3 12-3 2-1-11-4-8z" fill="#282940"/>
<path transform="translate(468,490)" d="m0 0 5 2-1 4-2 4h-2v-2h-6v-3l2-2h3z" fill="#20293A"/>
<path transform="translate(553,588)" d="m0 0h5v3l-1 5v6l-4 2-1-3z" fill="#F6C3FA"/>
<path transform="translate(541,588)" d="m0 0h5l1 2-3 4v9h-4v-14z" fill="#F6C3FA"/>
<path transform="translate(584,522)" d="m0 0 2 2-1 2 4 1 4 6-1 3-5-1-3-4z" fill="#282940"/>
<path transform="translate(602,590)" d="m0 0 4 1v8l-1 1h-6v-9z" fill="#282940"/>
<path transform="translate(420,526)" d="m0 0h6v5h3l-1 5h-5l-3-4-1-5z" fill="#282940"/>
<path transform="translate(763,490)" d="m0 0 2 2h3l1 2 2-1-2 4-4 2-8-2v-4h3z" fill="#20293A"/>
<path transform="translate(682,474)" d="m0 0 12 3-2 2-18 1 1-3z" fill="#20293A"/>
<path transform="translate(423,509)" d="m0 0 5 2 1 4-2 2h-6l-1-1v-5z" fill="#282940"/>
<path transform="translate(642,474)" d="m0 0 8 1 2 2 3-1v3h-15v-2l-4-1 2-1z" fill="#20293A"/>
<path transform="translate(316,591)" d="m0 0h3l2 4-1 5-5 1-1-6z" fill="#27293F"/>
<path transform="translate(210,623)" d="m0 0 3 1 2 4v5h-6v-9z" fill="#20293A"/>
<path transform="translate(587,509)" d="m0 0 5 1 2 3v20h-1l-1-18-1-3-4 1-1 1-1 7h-1v-9z" fill="#282940"/>
<path transform="translate(567,591)" d="m0 0 4 1 1 7-2 2-4-1z" fill="#282940"/>
<path transform="translate(268,504)" d="m0 0 2 2-7 19-2 4-2-1 1-4 2-2 4-13z" fill="#20293A"/>
<path transform="translate(301,490)" d="m0 0 1 2 2 1v2h1v5l-3 4h-2v-8l-1-4z" fill="#20293A"/>
<path transform="translate(384,590)" d="m0 0h3l1 2v7l-5 1v-8z" fill="#282940"/>
<path transform="translate(255,528)" d="m0 0h1l1 5h2l1-3 1 2-3 7-2 2-2-2-1-3 1-7z" fill="#20293A"/>
<path transform="translate(543,535)" d="m0 0 1 4-2 4-3 2-2-3 1-4z" fill="#20293A"/>
<path transform="translate(729,546)" d="m0 0h5l1 3 2 2-8 1-1-2-3-2h4z" fill="#20293A"/>
<path transform="translate(400,670)" d="m0 0 6 1 1 3-2 1h-7v-2l-3-1v-1z" fill="#20293A"/>
<path transform="translate(485,591)" d="m0 0h3v8l-4 1-1-5z" fill="#282940"/>
<path transform="translate(452,591)" d="m0 0 3 1 1 7-4 1-1-8z" fill="#282940"/>
<path transform="translate(564,534)" d="m0 0 2 1v4l4 1-1 4h-4l-1-2z" fill="#20293A"/>
<path transform="translate(718,511)" d="m0 0h6l2 4-1 1h-6z" fill="#20293A"/>
<path transform="translate(635,508)" d="m0 0h1l1 14-1 3-3-1v-6l1-1z" fill="#24293D"/>
<path transform="translate(321,512)" d="m0 0 2 2 1 10h-3l-1-3v-8z" fill="#282940"/>
<path transform="translate(307,482)" d="m0 0h4v4h-2l2 4-4 1-1-8z" fill="#20293A"/>
<path transform="translate(284,435)" d="m0 0 3 1-2 4-4 2-2-2 1-4z" fill="#20293A"/>
<path transform="translate(262,625)" d="m0 0 5 1 3 3-1 4-3-1v-2l-3-1z" fill="#20293A"/>
<path transform="translate(396,552)" d="m0 0 1 2-2 3-5 1-2-4 7-1z" fill="#20293A"/>
<path transform="translate(468,591)" d="m0 0h2l2 5v4h-4z" fill="#282940"/>
<path transform="translate(611,588)" d="m0 0 4 1 1 10-3-1z" fill="#F6C3FA"/>
<path transform="translate(355,708)" d="m0 0 6 5v1l-7-1-3-2z" fill="#20293A"/>
<path transform="translate(219,643)" d="m0 0h2l1 6 3 1-1 3-4-4v-2h-2z" fill="#20293A"/>
<path transform="translate(309,721)" d="m0 0 11 2-1 2h-7l-5-2z" fill="#20293A"/>
<path transform="translate(848,527)" d="m0 0h5l1 5-5-1-2-1z" fill="#20293A"/>
</svg>
