<?xml version="1.0" encoding="UTF-8"?>
<svg version="1.1" viewBox="0 0 1108 1108" width="277" height="277" xmlns="http://www.w3.org/2000/svg">
<path transform="translate(0)" d="m0 0h1108v1108h-1108z" fill="#27273F"/>
<path transform="translate(521,318)" d="m0 0h33l19 3 25 7 20 8 16 8 15 10 11 8-3 1-7-3-21-7-31-6-20-1h-17l-25 2-28 6-30 10-29 14-19 12-16 13-10 9h-2l-2 4-8 8-8 10-13 18-14 24-7 16-6 18-6 28-3 23v36l6 32 11 32 17 33 11 18 4 8v4l-6-2-16-16-12-16-13-18-9-15-8-16-10-28-6-27-3-24v-20l2-24 3-19 5-20 9-24 13-25 10-15 9-12 9-9 7-8 14-14 15-11 17-11 30-15 25-8 15-4 27-4z" fill="#F5C3F9"/>
<path transform="translate(534,369)" d="m0 0 2 1-7 7-14 11-15 14-7 7-7 8-9 10-13 18-12 18-13 24-8 19-5 15-5 24-2 24v13l1 18 6 25 8 23 9 19 8 12 8 11 12 14 9 10 7 8 13 11 17 12 12 7 20 9 36 12 22 4 24 3 14 1 4 2-16 3h-44l-31-4-28-6-30-10-18-8-17-10-16-12-12-11-5-5-9-10-13-18-10-18-8-19-6-18-5-23-4-33 1-17 3-27 8-30 8-18 10-19 10-15 10-14 7-8 4-2v-2l8-7 12-11 24-16 15-9 25-11z" fill="#F5C3F9"/>
<path transform="translate(484,653)" d="m0 0 4 1 13 10 15 11 25 13 10 5 30 11 26 7 23 5 22 3 16 1h16l26-2 24-4 27-6 27-9 14-7 3 1-14 13-18 13-21 12-20 8-23 7-11 2-11 1h-44l-28-4-21-6-21-8-16-8-16-9-13-9-10-9-7-7-7-8-10-12-10-14z" fill="#F5C3F9"/>
<path transform="translate(530,308)" d="m0 0 15 1 4 2 19 3h5l6 2h9l5 2 9 3 6 3 8 3v2l9 1 2 4 12 6 3 4-1 3-11-4-16-8-22-8-24-6-14-2h-33l-31 4-14 3-26 8-12 5-26 13-22 15-6 5-7 3-5 5h-2l-2 4-5 5-5 6h-2v2l-6 2-1 7h-2l-2 5-6-1-1-4h2l3-4h2l1-4 2-1 2-4 9-11 4-4h2l1-4h3l1-4 7-4 5-5 11-7 6-4h2v-2l33-17 13-4 6-3h3l1-2h2l6-2h6l1-2 15-3 15-4 18-2z" fill="#1F2538"/>
<path transform="translate(374,542)" d="m0 0 4 1 1 5-5 2 1 5 2 3v24l3 23 1 1 3 18 6 23 5 13 1 7 1 2 1 5 2 7 4 4 4 8 4 6 3 4-1 4-1-3-2-1-2-4-8-4 2-3-3-5-2-1-1-3-2 2-7-12v-2l-2-1-1-5h-2l-2-3v-5l-3-3v-9l-4-2-1-1 1-8-1-3-2-1-1-3-2-18-1-4 2-4 2 4v-4l1-8-1-7-1-9 1-9v-7l-1-4 3-13z" fill="#1E2538"/>
<path transform="translate(296,516)" d="m0 0h1v18h2l-1 11v14h2l2 13 2 7 5 26 6 20 8 20 8 16 6 9 1 5 3 5-1 2 3 1v2h2v2h2l1 4h-2l1 4-2 2-7-9-3 1-4-4-3-2-2-9h3l1-3-5-1-3-6-3-5-1-5h-2l-2-4 1-3v-4l-2 1v-2h-2l1-3 1-2-2-3v-3h-2l-1 3-3-6-1-4 3-2-1-5 1-4-4-7v-12h-2l-4-12-3-20v-13l1-13z" fill="#1F2539"/>
<path transform="translate(491,652)" d="m0 0 11 3 9 7v2h6l15 10 5 2 1 2 4 1v2l6 1 3 1v2l10 2v2l20 6 9 3 2 2 4-1 2 2 14 2 4 3-1 1 5 2 4 4h-7l-18-5-16-4-17-6-16-6-8-2-22-12-11-7-5-4-1-3-13-10z" fill="#1E2538"/>
<path transform="translate(337,593)" d="m0 0 4 2v8l-1 2h2l2 5 4 5 2 6-1 1v5l2 1 3 6 1 3h-2v2h2v2h2l4 16 2 2 2 6 4 10 7 10 7 15-1 3-1-4h-2l-1-2-6-2-1-3-2-1-3-6v-2h-2l-5-6-10-21-9-27-4-20v-12z" fill="#1E2538"/>
<path transform="translate(777,696)" d="m0 0 4 2h-2l1 3-14 5h-2v2l-21 5-14 3-31 3h-14l1-2-15-1-4-1h-7l-5-1-7-2v-1h9l18 2 8-1 1 1 42-7 16-4 11-3 9-1 2-1v2l7-2z" fill="#1E2538"/>
<path transform="translate(362,469)" d="m0 0 3 2-1 5-2 3-2 6-1 2h-2l-1 7-5 17h-2v12l-4 7-2 1 1 9v8l-3 6 1 5-1 16-3 6h2l1 5-3 1-2-6v-10l-1-3 1-13 1-17 6-28 7-21 8-17 4-1z" fill="#1E2538"/>
<path transform="translate(496,682)" d="m0 0 3 1 4 5v2h2v2h2l1-4h2l3 3 1 3 3 3v3h2l3 3 5 3 4 4v2l7 1 3 4 10 5v2h2l1 2 4-1 5 4-4 2-5-1-16-8-10-7-4-2v-2l-4-2-7-6-1 2-7-9-3-5-6-8z" fill="#1E2538"/>
<path transform="translate(472,699)" d="m0 0 5 2 5 6 4 4v2l4 2 4 4v2l4 2 7 6 12 8v2h4l2 2 6 4 2 4 4 2 1 2-4-1-10-5-3-3-7-4-11-8v-2l-4-2v-2h-3v-2l-4-2-5-4v-3l-4-2-8-10z" fill="#1E2538"/>
<path transform="translate(341,531)" d="m0 0 3 4v13l-3 6 1 5-1 16-3 6h2l1 5-3 1-2-6v-10l-1-3 1-13 2-16z" fill="#1E2538"/>
<path transform="translate(546,754)" d="m0 0 7 1 3 2 9 3 18 5 7 3 1 3h-11l-27-9-4-3 1-2-4-2z" fill="#1E2538"/>
<path transform="translate(462,404)" d="m0 0 1 2-3 5-6 5-8 1-3 5-4 1-2 5-3 1-2 4-4 3-2-5 7-6 3-3 5-4 1-4h5l1-3 4-4h4l1-2h3z" fill="#1F2539"/>
<path transform="translate(393,426)" d="m0 0h2v4h-2l-1 5h-3l-1 4-4 4-5 9-2 2-2 4-7 10h-4l1-5h2l1-4 6-9 5-5h2l1-6 2-4h2l2-4 3-3h2z" fill="#1E2538"/>
<path transform="translate(373,661)" d="m0 0 4 2 4 9 4 4 1 2 3 1 2 5 5 5 2 5 4 3-1 4v-3l-6-2-2-4v-3l-5-2-7-11v-2l-4 2 2 5-2 1-4-8-2-10z" fill="#1E2538"/>
<path transform="translate(283,552)" d="m0 0 4 1 1 3-2 2 2 4-1 9 6 16v16h-1l-4-14-3-5v-10l-2-6v-7l-4-4 2-4z" fill="#1E2538"/>
<path transform="translate(347,696)" d="m0 0h5l10 8 5 12-4 1v-2l-5-1-4-3-3-6-4-6z" fill="#1E2538"/>
<path transform="translate(434,728)" d="m0 0 4 3 7 6 3 5 2-1 5 3 5 4v2h3v2l7 1v3l2 1-1 1h-5v-2l-5-2-2-1v-2l-7-2v-2l-3-1-4-3v-2l-4-1-1-3-4-3-2-4z" fill="#1E2538"/>
<path transform="translate(406,708)" d="m0 0h3l2 4 2 2 4 6 8 9v2l4 2 6 7v2l4 2 5 3-1 2-6-3v-2l-4-2-7-8-5-4v-2l-4-1v-3l-4-2-3-3-3-9z" fill="#1E2538"/>
<path transform="translate(425,618)" d="m0 0 4 2 2-2 2 3 1 9 5 10 2 7-2 2-5-11-4-2-1-6 2-2-1-3-4-1z" fill="#1E2538"/>
<path transform="translate(379,547)" d="m0 0h1l-2 34 2 16v8h-1l-3-23v-24h-2l-1-8 2-2z" fill="#282840"/>
<path transform="translate(314,625)" d="m0 0 2 2 6 16 8 16 7 11-1 2-4-3-3-5v-4l-5-2-2-5-1-5-4-9v-5l-2-1v-4l-2-1z" fill="#282840"/>
<path transform="translate(437,589)" d="m0 0h2l-1 6 3-2v15l2 6-5 1-2-6v-10l-1-7h2z" fill="#1E2538"/>
<path transform="translate(382,436)" d="m0 0 1 3-2 6-5 3-9 15h-2l-1 5 3 1h-2l-1 2h-4l2-6 12-19z" fill="#282840"/>
<path transform="translate(378,682)" d="m0 0 5 5v2h2l2 7 1 4 3 5 1 10-2 2-3-8-2-7-2-12h-2l-3-6z" fill="#1E2538"/>
<path transform="translate(416,706)" d="m0 0 3 3 5 6v2h2l2 4 3 2-1 3-2-1v-2h-3l-1 2-4-4v-2h-2l-2-6 5 5-2-6h-2l-2-5z" fill="#1E2538"/>
<path transform="translate(482,391)" d="m0 0 1 3-4 4-6 4-5 1-2-3 1-2h3v-2l3-2h3l1-2z" fill="#1F2539"/>
<path transform="translate(336,545)" d="m0 0h1v17l-2 8 2 1v15l-2 5h-1v-30z" fill="#282840"/>
<path transform="translate(431,508)" d="m0 0 2 2-1 11-1 4h-2l-2 5-2-1v-8l5-10z" fill="#1E2538"/>
<path transform="translate(293,603)" d="m0 0h2l4 7 1 8 3 8-2 2-4-8-2-3 1-5h-2z" fill="#1E2538"/>
<path transform="translate(338,614)" d="m0 0 2 2 2 6 1 9 10 29-1 3-7-19-5-15-2-10z" fill="#282840"/>
<path transform="translate(422,540)" d="m0 0 5 2v6l-2 4-4 1v-10z" fill="#1E2538"/>
<path transform="translate(359,471)" d="m0 0 1 3-4 8-9 21-1-3 8-20z" fill="#282840"/>
<path transform="translate(324,433)" d="m0 0h1v5h-2l-1 5-3 1-2 7-3 1-1 4-1-3 1-2h2l1-5 5-8z" fill="#1E2538"/>
<path transform="translate(421,595)" d="m0 0 1 3h2l1 10-4 1-1-4v-9z" fill="#1F2539"/>
<path transform="translate(627,707)" d="m0 0 19 4-2 2h-8l-9-3-2-2z" fill="#1E2538"/>
<path transform="translate(425,621)" d="m0 0 1 3h6v7l-2-1v6l-2-2-3-9z" fill="#282840"/>
<path transform="translate(311,456)" d="m0 0 3 1-5 11-2 6-2 2 2-11 3-5z" fill="#1E2538"/>
<path transform="translate(302,629)" d="m0 0 4 4 4 9 1 8-2-2-5-12v-3l-2-1z" fill="#1E2538"/>
<path transform="translate(631,364)" d="m0 0 10 1 12 3-4 2-9-2-9-3z" fill="#1E2538"/>
<path transform="translate(340,523)" d="m0 0h1l1 8-3 8-1 5h-1l1-12z" fill="#282840"/>
<path transform="translate(402,356)" d="m0 0 2 1-11 8-4 3h-2l1-3 11-7z" fill="#282840"/>
<path transform="translate(299,614)" d="m0 0 4 4 2 7h-3l-3-7z" fill="#282840"/>
<path transform="translate(286,528)" d="m0 0h1v6l-6 2-2-1v-2h4l1-3h2z" fill="#1E2538"/>
<path transform="translate(420,564)" d="m0 0h3l1 7-3 3z" fill="#1E2538"/>
</svg>
