<?xml version="1.0" encoding="UTF-8"?>
<svg version="1.1" viewBox="0 0 1428 804" width="357" height="201" xmlns="http://www.w3.org/2000/svg">
<path transform="translate(0)" d="m0 0h1428v804h-1428z" fill="#27283F"/>
<path transform="translate(1053,696)" d="m0 0h99l2 5-2 2-62 1h-183l-549 3h-289l-1-4 1-1 189-2 629-2 97-1z" fill="#3A3B52"/>
<path transform="translate(1241,671)" d="m0 0h15l5 2v3l-19 1-2 2-8 3-6 7-4 12v12l6 12 3 3v2l-6-2-5-6-4-9-1-11 2-10 4-8 7-7 10-5z" fill="#3A3B52"/>
<path transform="translate(1267,518)" d="m0 0h3l-2 10-5 14-7 24h-3v-2l-5-2-10-7-19-13-6-4v-2l36-12zm-2 3-16 6-27 9v3l9 7 17 12 5 4h2l2-10 8-24 2-4v-3z" fill="#393A51"/>
<path transform="translate(1307,557)" d="m0 0 5 2 10 9 13 10 14 10 5 5-15 5-31 8h-4l2-42zm2 4-2 42 17-4 24-6-2-4-16-12-11-9-8-7z" fill="#3A3B52"/>
<path transform="translate(1241,680)" d="m0 0h4l-1 4-6 7-5 13 1 10 3 7 6 7 13 7v1h-11l-9-5-6-8-3-7v-16l4-9 7-8 3-1z" fill="#3A3B52"/>
<path transform="translate(1165,577)" d="m0 0 36 6 19 2 3 1-2 4-3 1-2 4-8 7-18 18-1 2h-2l-15-30-7-12zm5 5 2 5 8 16 8 15 7-6 21-21 1-3-2-1-26-3-12-2z" fill="#3A3B52"/>
<path transform="translate(1412,466)" d="m0 0h2v9l-3 37-1 5-9-3-27-12-10-4v-2l9-5 24-15zm-2 4-15 10-22 14-4 2v2l14 5 13 6 9 4 3 1 2-23 1-21z" fill="#3A3B52"/>
<path transform="translate(1197,37)" d="m0 0h2v50l-10-2-35-11-2-1v-2l18-13 14-11zm-2 5-32 24-6 5 1 2 17 5 22 7-1-43z" fill="#3A3B52"/>
<path transform="translate(1197,349)" d="m0 0h2v50l-10-2-35-11-2-1v-2l18-13 14-11zm-2 5-16 12-15 11-8 6 2 2 17 5 22 7-1-43z" fill="#3A3B52"/>
<path transform="translate(224,349)" d="m0 0h2l1 50-9-1-41-13 3-3 19-14 18-14zm-2 4-18 14-15 11-7 5 1 2 18 5 19 6h3l1-43z" fill="#3A3B52"/>
<path transform="translate(17,10)" d="m0 0 2 1v2l4 1 18 11 17 10 3 1v2l-16 6-36 15h-4l4-18 7-26zm1 5-4 18-5 17v6l40-16 7-3-4-3-14-8-18-11z" fill="#3A3B52"/>
<path transform="translate(1165,484)" d="m0 0h2l10 18 12 19 3 6-44 10h-7l2-4 12-26 5-13zm0 5-10 23-8 19 1 2 18-3 22-4-2-6-7-11-12-19z" fill="#3A3B52"/>
<path transform="translate(335,245)" d="m0 0 4 2 25 20 13 9 2 1v2l3 1-3 2-23 7-19 5h-5l2-40zm2 4-2 42 11-2 27-7 4-2-4-4-19-14-10-8z" fill="#3A3B52"/>
<path transform="translate(1124,5)" d="m0 0h2l3 43 2 8-4-1-22-13-20-12-7-4 2-2 24-10 15-7zm-2 3-24 11-14 6 4 4 15 9 22 13 2-1-3-30-1-12z" fill="#3A3B52"/>
<path transform="translate(799,317)" d="m0 0h2l3 38 2 12-5-1-22-13-25-15 1-2 25-11 16-7zm-2 3-37 17 5 5 19 11 17 10 1-4-3-39z" fill="#3A3B52"/>
<path transform="translate(982,245)" d="m0 0h3l5 5 16 13 14 10 8 6 1 2-19 6-26 7h-5l3-47zm2 4v12l-2 31 35-9 7-2v-3l-7-4-14-11-13-10-5-4z" fill="#3A3B52"/>
<path transform="translate(17,322)" d="m0 0 11 7 13 8 17 10 3 1v2l-6 2-46 19h-4l4-18 7-26zm1 5-4 18-5 17v6l40-16 7-3-4-3-16-9-14-9z" fill="#3A3B52"/>
<path transform="translate(149,317)" d="m0 0h2l1 3 3 37 2 10-6-2-25-14-14-9-7-4 3-2 22-10 16-8zm-1 3-30 14-7 3v2l24 14 17 10 1-4-3-34-1-5z" fill="#3A3B52"/>
<path transform="translate(550,37)" d="m0 0 2 1v49l-10-2-26-8-12-4 5-5 16-12 14-11zm-2 5-10 7-18 14-11 8 2 2 20 6 16 5 3-1v-13l-1-28z" fill="#3A3B52"/>
<path transform="translate(150,5)" d="m0 0h2l3 44 2 6-5-1-26-15-13-8-8-5 3-2 26-12zm-2 3-23 11-14 6 5 5 35 21 2-1-3-42z" fill="#3A3B52"/>
<path transform="translate(1307,245)" d="m0 0 4 2 11 9 14 11 18 13-3 2-24 7-19 5h-4l2-40zm2 4-2 41 3 1 35-9 4-2-3-3-16-12-14-11z" fill="#3A3B52"/>
<path transform="translate(224,37)" d="m0 0h2v18l1 32-9-1-35-11-6-2 3-3 19-14 10-8zm-2 4-18 14-19 14-2 3 36 12h4v-43z" fill="#3A3B52"/>
<path transform="translate(942,518)" d="m0 0h4l-3 11-6 16-6 20-2 1v-2l-5-2-17-12-10-7-8-5v-2l13-4 29-10zm0 2-18 7-29 10 5 5 17 12 11 8h2l6-21 7-19z" fill="#3A3B52"/>
<path transform="translate(292,518)" d="m0 0h5l-3 10-11 33-2 5-6-4-16-11-14-10-5-4 10-4 40-14zm-1 3-37 13-9 3 4 4 6 4 16 11 9 6 3-8 10-31v-2z" fill="#3A3B52"/>
<path transform="translate(549,350)" d="m0 0h3v49l-10-2-26-8-12-4 5-5 16-12 14-11zm-1 4-10 7-13 10-16 12 1 2 21 6 16 5h3v-15l-1-27z" fill="#3A3B52"/>
<path transform="translate(342,323)" d="m0 0 4 1 11 7 21 12 9 5v2l-16 6-38 16-1-3 9-39zm2 4-6 26-2 12-2 3 5-1 23-10 14-5 7-3-4-3-17-9-13-8z" fill="#3A3B52"/>
<path transform="translate(665,322)" d="m0 0 4 2 11 7 17 10 9 5v2h4v2l-7 2-11 5-34 14h-4l3-12 8-33zm2 4-3 16-5 18-2 8 9-3 29-12 10-4-2-3-16-8-16-10z" fill="#3A3B52"/>
<path transform="translate(799,5)" d="m0 0h2l3 41 2 10-14-7-25-15-9-6-4-2 2-2 25-11zm-2 3-21 10-16 7 5 5 22 13 13 8h2l-3-38v-5z" fill="#3A3B52"/>
<path transform="translate(1123,317)" d="m0 0 3 1 3 40 1 10-14-8-18-10-19-12 4-3 26-12zm-1 3-20 9-18 8 4 4 29 17 10 6-1-15-2-22v-7z" fill="#3A3B52"/>
<path transform="translate(343,12)" d="m0 0 5 2 23 13 12 7 4 2v2l-16 6-38 16-1-3 8-36zm2 3-2 6-7 28v6l-2 1 5-1 23-10 18-7 2-2-18-10-15-9z" fill="#3A3B52"/>
<path transform="translate(982,557)" d="m0 0 4 1v2l4 2 16 13 16 11v2l4 2 3 3-24 7-23 6h-2v-15zm3 5-2 22-1 19 18-4 24-6-1-3-11-8-14-11-10-8z" fill="#3A3B52"/>
<path transform="translate(1314,12)" d="m0 0 4 1 32 18 5 3v2h4v2l-7 2-11 5-29 12-4 2h-4l3-16 6-25zm3 3-2 6-7 27v7l5-1 21-9 20-8-3-3-11-6-14-8z" fill="#3A3B52"/>
<path transform="translate(665,11)" d="m0 0 5 2 30 18 6 3v2h4v2l-6 2-46 19h-4l4-16 6-25zm2 4-7 29-2 10-1 2 9-3 29-12 10-4-2-1v-2l-16-8-18-11z" fill="#3A3B52"/>
<path transform="translate(1088,466)" d="m0 0h2l-4 51-9-3-25-11-13-5v-2l11-6 13-8 17-11zm-2 4-22 14-20 12 1 2 17 7 19 8 3 1 3-44z" fill="#3A3B52"/>
<path transform="translate(1300,440)" d="m0 0 9 3 26 11 12 4-2 4-16 17-9 11-6 7-2-4-4-16-8-35zm3 4 8 35 3 14 5-5 9-11 11-11 5-7-18-6-21-9z" fill="#3A3B52"/>
<path transform="translate(1089,240)" d="m0 0h2l6 12 16 27 7 10v2l-48-4-3-1 1-4 14-32zm0 5-7 16-7 15-3 7 10 2 31 3h2l-2-5-13-22-9-16z" fill="#3A3B52"/>
<path transform="translate(335,556)" d="m0 0 8 6 13 11 19 14 7 5-4 2-24 7-19 5-3-1 2-38zm2 5-2 42 18-4 23-6v-3l-14-10-20-16z" fill="#3A3B52"/>
<path transform="translate(990,11)" d="m0 0 14 8 23 13 4 2v2h3v2l-13 5-31 13-7 3h-4l4-18zm2 4-9 35 1 4-3 1 2 1 29-12 14-5 3-3h-2v-2l-14-7-15-9-4-3z" fill="#3A3B52"/>
<path transform="translate(797,414)" d="m0 0 9 3 20 8 17 5v2l2 1-8 9-9 11-14 18h-2l-11-43-4-12zm4 5 1 5 7 25 4 18 5-5 12-14 9-11 3-5-26-8-13-5z" fill="#3A3B52"/>
<path transform="translate(148,414)" d="m0 0 9 3 24 9 13 4 1 3-9 12-13 15-8 11-2-1-6-23-7-24zm4 5 3 12 7 27 2 9 5-5 12-14 9-11 2-6-16-4z" fill="#3A3B52"/>
<path transform="translate(517,266)" d="m0 0 19 2 15 3 21 2 3 1-2 4-11 11-2 3h-2l-2 4-14 13-2 2-8-16-13-25zm4 3 8 15 11 23 7-6 2-1v-2h2l5-5 5-6 7-6v-2h2l1-3-48-7z" fill="#3A3B52"/>
<path transform="translate(441,466)" d="m0 0h1v12l-3 39-10-3-13-6-24-10v-2l11-6 16-10 20-13zm-3 4-15 10-21 13-5 3v2l11 4 27 12 2-1 3-43z" fill="#3A3B52"/>
<path transform="translate(1314,323)" d="m0 0 5 2 30 18 6 3v2h4v2l-9 3-38 16-4 2h-4l4-20 5-21zm2 4-9 39-1 2 9-3 19-8 20-8-5-4-20-11-11-7z" fill="#3A3B52"/>
<path transform="translate(990,323)" d="m0 0 5 2 9 6 23 13 4 2v2l4 1-12 5-40 17h-4l4-18 6-25zm2 4-8 32v7l-3 1 2 1 29-12 14-5 4-3-17-9-15-9-4-3z" fill="#3A3B52"/>
<path transform="translate(0,127)" d="m0 0 13 5 19 8 13 4v2l3 1-6 8-11 12-7 8-8 10-2-1-1-5-7-31-3-12v-6h-2l-1 2zm5 5 2 10 6 26 3 12 12-12 9-11 8-9-1-2-16-5-22-9z" fill="#393A51"/>
<path transform="translate(619,518)" d="m0 0h4l-3 11-7 20-3 9-2 7-4-1-14-10-17-12-6-4v-2l24-8zm0 2-15 6-32 11 5 5 10 7 13 9h2v2l5 2 6-20 7-20z" fill="#3A3B52"/>
<path transform="translate(1235,420)" d="m0 0 3 3 12 18 12 17v2h2l-1 3-47 13-2-2 5-10 13-35zm1 6-8 20-8 21v4l11-2 29-7v-3l-16-23-7-10z" fill="#3A3B52"/>
<path transform="translate(476,317)" d="m0 0h2l2 21 2 27 1 2-4-1-16-9-27-16-4-2v-2l25-12zm-2 3-26 12-12 5 4 4 25 14 11 7 3 2v-11l-3-33z" fill="#3A3B52"/>
<path transform="translate(658,245)" d="m0 0 4 2 12 10 9 7 15 11 7 5-2 2-25 7-18 5h-6l1-5 2-36zm1 4v11l-1 17v14l18-4 24-6-1-3-9-6-18-14-10-8z" fill="#3A3B52"/>
<path transform="translate(906)" d="m0 0h2l3 3 5 2 16 8 13 5 7 3-3 5-9 10-12 13-7 8-1 2h-2l-6-29-6-28zm4 5 2 13 7 34h3l8-8 7-8 11-11 1-3-16-6-21-10z" fill="#393A51"/>
<path transform="translate(0,439)" d="m0 0 13 5 19 8 12 4 3 2-1 4-9 10-9 11-7 7-5 7-2-1-1-5-7-31-3-12v-6h-2l-1 2zm5 5 2 10 6 26 3 12 12-12 9-11 8-9-1-2-16-5-22-9z" fill="#393A51"/>
<path transform="translate(910,421)" d="m0 0 3 1 11 17 10 14 6 9-9 3-36 10h-5l11-29 7-19zm1 4-9 25-6 16v4l-3 1 2 1 36-9 5-1-2-6-10-13-10-15z" fill="#3A3B52"/>
<path transform="translate(1122,414)" d="m0 0 11 4 18 7 18 6-2 5-8 9-11 14-9 12h-2l-1-5-4-13-7-27-3-9zm4 5 12 48 5-5 18-22 5-6v-2l-36-12z" fill="#393A51"/>
<path transform="translate(419,380)" d="m0 0h3l5 21 5 22 2 5h-3l-17-6-19-8-10-4-7-3 4-3 24-15 12-8zm0 3-15 10-17 10-3 2v2l37 15 9 3-4-18-5-23z" fill="#3A3B52"/>
<path transform="translate(115,240)" d="m0 0h2l4 8 16 27 7 12 2 1v2h-12l-35-3-4-1 2-5 11-26 6-11zm0 6-11 24-5 12v2l25 3 18 1-8-14-16-27z" fill="#3A3B52"/>
<path transform="translate(1089,551)" d="m0 0 2 1 6 11 10 18 11 17v2h2v2l-24-1-27-3 1-4 15-34zm0 6-9 19-8 19 10 2 17 2h16l-2-5-9-14-8-14-6-9z" fill="#3A3B52"/>
<path transform="translate(1067,380)" d="m0 0 3 1 8 35 2 10v3l-16-6-33-14-5-1v-2l18-11 20-13zm0 3-16 10-20 12 3 3 34 14 9 3-4-20-5-22z" fill="#3A3B52"/>
<path transform="translate(944,206)" d="m0 0h2l-3 11-7 20-5 16h-3l-19-13-13-10-7-4v-2l13-4zm-3 3-10 4-36 12 5 5 18 13 4 3h2v2l5 4 3-9 9-28 2-6z" fill="#3A3B52"/>
<path transform="translate(1235,108)" d="m0 0 2 1 4 7 14 21 9 12v2l-43 12-6 1 3-10 9-24 7-17zm1 7-4 9-11 29-1 6 2 1 38-10-2-5-11-16-8-12z" fill="#3A3B52"/>
<path transform="translate(476,5)" d="m0 0h2l3 35v14h2v2l-5-2-15-9-19-11-9-6-4-2 3-2 35-16zm-1 3-31 14-8 3 4 4 26 15 11 7 2 1-1-20-2-24z" fill="#3A3B52"/>
<path transform="translate(1088,155)" d="m0 0h2l-4 50-11-4-30-13-6-2v-2l11-6 20-12zm-2 3-10 7-20 12-12 7 1 2 17 7 15 6 5 3h2l3-44z" fill="#3A3B52"/>
<path transform="translate(763,466)" d="m0 0h2v11l-2 21-1 18-9-2-38-16v-2l11-6 11-7 14-9zm-1 3-11 8-20 12-11 7v2l13 5 25 11 2-1 2-35 1-9z" fill="#3A3B52"/>
<path transform="translate(420,68)" d="m0 0 2 1 8 33 2 9 2 5h-3l-17-6-19-8-11-5-6-2 4-3 24-15zm-2 4-24 15-10 6v2l37 15 9 3-8-35-1-6z" fill="#3A3B52"/>
<path transform="translate(1067,68)" d="m0 0 3 1 8 35 2 10v3l-14-5-11-5-24-10-5-1v-2l18-11 17-11zm0 3-16 10-20 12 3 3 34 14 9 3-4-20-5-22z" fill="#3A3B52"/>
<path transform="translate(114,466)" d="m0 0h3l-1 6-3 44-9-2-38-16v-2l11-6 33-21 4-1zm-3 5-40 25 3 3 31 13 6 1 2-42z" fill="#3A3B52"/>
<path transform="translate(257,314)" d="m0 0 5 1 27 12 14 5-2 5-12 13-11 12-8 9-2-4-5-24zm4 4 1 9 5 24 3 15 4-2 7-8 12-13 7-8-3-3-16-6-18-8z" fill="#393A51"/>
<path transform="translate(841,266)" d="m0 0 18 2 24 4 15 2-2 4h-2l-2 4-26 26-4 2-8-16-12-23zm3 3 18 36 2 2 30-30-3-2-24-3z" fill="#3A3B52"/>
<path transform="translate(442,240)" d="m0 0 2 1 6 12 17 28 5 9h-11l-34-3-6-1v-3h2l1-5 7-15 6-13zm0 5-8 16-8 18-2 4 10 2 30 3 4-1-10-17-12-20z" fill="#3A3B52"/>
<path transform="translate(764,240)" d="m0 0h2l6 11 14 24 8 13 2 2-2 1-44-4-6-1 10-23 6-13zm1 5-8 16-7 16-2 6 9 2 31 3h2l-1-5-10-16-13-22z" fill="#3A3B52"/>
<path transform="translate(295,206)" d="m0 0h2l-3 10-11 33-2 5-11-7-18-13-10-7-2-2 10-4 36-12zm-3 3-40 14-7 2 4 4 19 13 9 7 3 2 3-8 10-32z" fill="#3A3B52"/>
<path transform="translate(1392,68)" d="m0 0 2 1 10 43 2 4-2 1-27-11-21-9-6-2 4-3 24-15zm-2 4-21 13-13 8 3 3 31 13 11 4-1-8-7-31-1-2z" fill="#3A3B52"/>
<path transform="translate(1231,314)" d="m0 0 9 3 20 9 15 6v4l-7 8-9 10-9 9-6 8h-2l-8-43-3-11zm2 3 2 4 4 21 4 23 1 2 1-3h2l7-8 7-7 7-8 6-7-4-2-13-5-21-9z" fill="#3A3B52"/>
<path transform="translate(1412,155)" d="m0 0h2l-1 19-2 22v8l-2 1-30-13-15-6v-2l11-6 18-11 17-11zm-2 4-15 9-24 15-2 1v2l11 4 27 12h1l3-37v-6z" fill="#3A3B52"/>
<path transform="translate(191,484)" d="m0 0h2l11 19 12 19 2 5-10 2-34 8h-6v-2h2l1-5 12-27 7-15zm1 5-9 19-10 23v2h7l27-6 8-2-5-9-7-11-10-16z" fill="#3A3B52"/>
<path transform="translate(1268,206)" d="m0 0 3 1-11 31-4 15-3 1v-2l-5-2-11-8-18-13-5-3v-2l43-14zm-2 3-11 4-35 12 4 5 13 9 14 10h2l1 2 3-9 6-20 5-13z" fill="#3A3B52"/>
<path transform="translate(620,206)" d="m0 0h3l-3 11-10 30-2 7-5-2-13-10-17-12-6-4v-2l36-12zm-2 3-16 6-30 10 5 5 18 13 8 6h2v2h2l6-20 4-12 3-10z" fill="#3A3B52"/>
<path transform="translate(328,440)" d="m0 0 9 3 26 11 9 2 1 2h2l-2 4-14 15-1 2h-2l-2 4-8 9-3 4h-2l-2-5-6-29-4-17zm3 4 7 30 4 19 5-5 12-14 10-10 3-5-18-6-21-9z" fill="#3A3B52"/>
<path transform="translate(1391,380)" d="m0 0 3 1 10 43 2 4-2 1-27-11-21-9-6-2 5-4 20-12 15-10zm-1 4-21 13-13 8v2l34 14 11 4-1-9-6-25-1-7z" fill="#3A3B52"/>
<path transform="translate(94,380)" d="m0 0h2l9 39 2 9-10-2-23-10-16-7-6-2 5-4 31-19zm0 3-17 10-11 7-8 5v2l20 8 11 5 12 5h2l-1-8-6-27-1-7z" fill="#3A3B52"/>
<path transform="translate(763,155)" d="m0 0h2l-1 18-2 31-9-2-35-15-3-1v-2l11-6 21-13zm-1 3-19 12-23 14v2l14 5 15 7 10 4 1-1 2-35 1-8z" fill="#3A3B52"/>
<path transform="translate(258)" d="m0 0 2 1v2l7 2 16 8 12 5 8 3-2 4-7 8-24 26h-1l-4-18-6-29zm3 5 1 9 8 40 3-1 7-8 9-9 7-8 4-4v-2l-16-6-21-10z" fill="#3A3B52"/>
<path transform="translate(9,556)" d="m0 0 8 6 14 12 15 11 6 4 4 4-21 6-26 7h-3l2-42zm2 4-2 26v17l17-4 22-6 2-2-10-8-13-10-11-9z" fill="#3A3B52"/>
<path transform="translate(975,440)" d="m0 0 9 3 29 12 7 2v2h2v2l-12 12-7 8-10 11-5 5-6-26zm3 4 2 5 9 44 5-5 14-15 7-8 5-6-13-4-26-11z" fill="#3A3B52"/>
<path transform="translate(587,109)" d="m0 0 3 1 7 11 12 18 7 10v2l-42 12-7 1 11-29 8-22zm1 4-7 20-8 21v6l40-10-2-5-8-11-14-21z" fill="#3A3B52"/>
<path transform="translate(1122,102)" d="m0 0 26 10 18 6 3 2v2h-2l-2 4-9 11-7 9-10 13h-2l-3-10-7-28-5-16zm3 4 3 9 10 39 4-2 11-14 9-11 4-6-8-3-28-10z" fill="#3A3B52"/>
<path transform="translate(148,102)" d="m0 0 5 2 27 10 15 5-2 5-8 10-11 13-9 12-2-1-5-18-5-20-3-9zm4 5 12 48 5-5 8-9 9-11 5-6 1-4-17-5-14-5z" fill="#3A3B52"/>
<path transform="translate(1231)" d="m0 0 2 1v2l6 1 4 3 23 10 10 4-2 5-15 16-9 9-6 8h-2l-1-6-9-46zm3 5 5 25 4 23 1 2 9-10 12-12 7-8 2-3-21-8-16-8z" fill="#3A3B52"/>
<path transform="translate(658,556)" d="m0 0 8 6 9 8 16 12 10 7v2h3v2l-23 7-24 6h-2l2-41zm2 5-2 26v16l25-6 16-4 1-2-11-8-13-10-10-8z" fill="#3A3B52"/>
<path transform="translate(518,484)" d="m0 0h2l2 5 17 28 5 8v2l-39 9-11 1 5-10 13-31zm0 5-6 12-12 29v3l10-1 31-6-5-10-10-16-7-11z" fill="#3A3B52"/>
<path transform="translate(588,421)" d="m0 0 5 5 12 19 12 16-3 2-24 7-18 5h-5l7-18 5-13 6-16zm0 4-6 17-9 24v5l6-1 33-8 1-2-8-12-15-22z" fill="#3A3B52"/>
<path transform="translate(743,380)" d="m0 0h2l9 38 1 8 2 2-2 1-27-11-22-9-5-2 5-4 20-12zm-1 3-22 14-13 8v2l24 10 20 8h1l-1-9-6-27-1-6z" fill="#3A3B52"/>
<path transform="translate(192,266)" d="m0 0 17 2 16 3 20 2 3 1-1 4-22 22-8 7-4 4-12-25-8-15zm3 3 8 16 10 21 4-2 8-7 19-19 1-3-27-3z" fill="#3A3B52"/>
<path transform="translate(9,244)" d="m0 0 8 6 9 8 13 10 13 9v2l4 1-4 2-27 8-14 4h-5l2-41zm1 4-1 43 18-4 23-6 1-2-13-9-16-13-10-9z" fill="#3A3B52"/>
<path transform="translate(115,154)" d="m0 0 1 3-3 47-9-2-35-15-3-1v-2l8-4 19-12 16-10zm-3 5-15 9-21 13-5 4 8 4 28 12h4l2-42z" fill="#3A3B52"/>
<path transform="translate(797,102)" d="m0 0 9 3 19 8 17 5v2l3 1-8 9-11 14-2 3h-2l-2 5-6 7h-2l-9-36-6-19zm4 5 1 5 7 25 4 18 6-5 13-17 8-9 1-3-8-3-30-11z" fill="#3A3B52"/>
<path transform="translate(93,69)" d="m0 0h3l3 12 7 32 1 3h-3l-11-4-35-15-6-2 5-4 31-19zm1 2-17 10-11 7-8 5v2l20 8 11 5 12 5h2l-1-8-6-27-1-7z" fill="#3A3B52"/>
<path transform="translate(584)" d="m0 0 5 3 9 5 21 9 11 4v2h-2l-2 4-12 12-7 8h-2l-2 4-5 5-1 3h-2l-11-55zm3 5 5 27 4 22 7-6 10-10 7-8 5-5v-2l2-1-12-4-20-9z" fill="#3A3B52"/>
<path transform="translate(872,349)" d="m0 0h2l1 50-11-2-25-8-12-4v-2l6-4 16-12 13-10zm-1 4-14 11-16 12-9 7 1 2 21 6 15 5h3v-43z" fill="#3A3B52"/>
<path transform="translate(910,109)" d="m0 0 3 1 11 18 11 15 3 5 2 1v2l-25 7-23 6h-2l3-9 11-29 6-15zm1 4-6 17-9 24-1 4-2 3 16-4 27-7-2-5-11-15-7-11-4-6z" fill="#3A3B52"/>
<path transform="translate(872,37)" d="m0 0h2l1 50-11-2-25-8-12-4 5-5 16-12 14-11zm-1 4-15 12-18 13-6 5 1 2 8 2 28 9h3v-43z" fill="#3A3B52"/>
<path transform="translate(906,314)" d="m0 0 4 1 7 3 24 10 11 5-3 5-11 12-15 16-3 5h-2l-4-18-5-25zm2 3 2 3 8 40 1 7 5-5 16-17 5-5v-2h2l2-5-17-6-22-10z" fill="#3A3B52"/>
<path transform="translate(441,155)" d="m0 0h1v12l-3 38-9-3-35-15-3-1v-2l11-6 18-11 17-11zm-3 4-18 11-23 14v2l20 8 18 8h2l3-43z" fill="#3A3B52"/>
<path transform="translate(841,484)" d="m0 0 3 3 15 26 8 12v2l-35 8-9 2h-6v-2h2l1-5 13-29 7-16zm0 5-7 15-9 20-4 10 17-3 26-5-2-5-11-18-8-13z" fill="#3A3B52"/>
<path transform="translate(328,128)" d="m0 0 9 3 26 11 9 2-1 3-12-3-26-11v2l5 23 5 22 9-11 9-10 7-7 5-6h2l-2 4-14 15-1 2h-2l-2 4-8 9-4 5-3-6-6-29-3-11-1-8z" fill="#3A3B52"/>
<path transform="translate(743,68)" d="m0 0h2l9 38 1 8 2 2-7-1-37-15-12-5 5-4 23-14zm-1 3-22 14-13 8v2l29 12 16 6-1-9-6-27-1-6z" fill="#3A3B52"/>
<path transform="translate(650,440)" d="m0 0 9 3 22 9 15 5 1 3-10 11-7 8-9 10-6 8-2-2-11-48zm3 3 3 10 8 37 2 2v-2h2l7-8 2-4h2l7-8 6-7v-3l2-1-19-7-20-8z" fill="#3A3B52"/>
<path transform="translate(261,421)" d="m0 0h2l16 24 12 16-2 2-2-1v2l-34 9-12 3 3-9 15-40zm1 5-7 18-10 26v2l18-4 23-6 2-2-8-10-14-20z" fill="#3A3B52"/>
<path transform="translate(191,172)" d="m0 0h2l5 9 10 17 10 15v2l-45 10-5-1 2-4 12-26 5-12zm1 5-8 17-10 23-1 5 17-3 25-5-2-5-10-15-10-17z" fill="#3A3B52"/>
<path transform="translate(975,128)" d="m0 0 9 3 29 12 7 2v2h2v2l-14 14-7 8-11 13h-2l-6-25zm3 4 2 5 9 44 5-5 14-15 7-8 5-6-13-4-26-11z" fill="#3A3B52"/>
<path transform="translate(518,577)" d="m0 0 35 6 22 3-2 4-29 29-5 2-20-40-2-3zm4 4 2 5 16 32 4-2 27-27v-1l-39-6z" fill="#3A3B52"/>
<path transform="translate(1165,172)" d="m0 0h2l6 11 8 14 10 15 1 3-45 10h-5l2-5 17-39zm0 5-13 30-5 11v3l12-1 29-6-2-6-10-15-9-16z" fill="#3A3B52"/>
<path transform="translate(650,128)" d="m0 0 9 3 22 9 14 5v2l2 1-9 11h-2l-2 4-14 15-5 7-2-2-11-48zm3 3 3 10 8 37 2 2v-2h2l7-8 2-4h2l7-8 6-7v-3l2-1-19-7z" fill="#3A3B52"/>
<path transform="translate(1165,266)" d="m0 0 18 2 16 3 21 3 3 2-5 4-7 8-15 15-6 5-1 2h-2l-9-17-8-16-5-9zm3 3 8 14 8 16 3 8 4-2 28-28v-1l-47-7z" fill="#3A3B52"/>
<path transform="translate(192,578)" d="m0 0 11 1 23 4 20 2 2 1-2 4-5 6-6 5-20 20h-2l-8-16-11-21zm4 3 2 5 9 19 7 12 4-2 17-17 8-7 2-4-33-4z" fill="#3A3B52"/>
<path transform="translate(841,172)" d="m0 0 2 1 6 11 8 14 10 15v2l-40 9-10 1v-2h2l1-5 13-29 7-16zm0 5-8 17-12 27 2 1 37-7 4-1-2-5-9-14-10-17z" fill="#3A3B52"/>
<path transform="translate(518,172)" d="m0 0h2l2 5 12 21 10 15v2l-39 9-11 1 5-10 15-35zm0 5-6 12-10 24-3 9 17-3 25-5-4-8-10-16-8-13z" fill="#3A3B52"/>
<path transform="translate(261,109)" d="m0 0h2l6 10 13 19 8 11v2l-42 12-7 1 3-9 10-26 5-14zm1 5-7 18-10 26-1 3 10-2 26-7 7-2-2-4-13-19-9-13z" fill="#3A3B52"/>
<path transform="translate(841,577)" d="m0 0 35 6 20 3 2 2-5 4-4 5-8 7-17 17h-2l-8-16-13-25zm3 4 8 15 10 20h4l19-19 7-6 1-3-2-1-35-5z" fill="#3A3B52"/>
<path transform="translate(764,552)" d="m0 0h2l9 16 11 19 7 11v2h2v2l-40-3-10-2 3-9 12-27zm0 5-15 34-1 4 1 1 27 3h14l-2-5-9-15-10-17-3-5z" fill="#3A3B52"/>
<path transform="translate(1413,551)" d="m0 0 3 3 10 16v2h2v6l-4-4-10-16-8 17-9 20 29 2 2 1v3h-10l-21-2-4-1 1-4 9-20 6-13 3-7z" fill="#3A3B52"/>
<path transform="translate(115,552)" d="m0 0h2l4 8 16 27 7 12 2 2-3 1-44-4-3-1 3-9 11-25 4-7zm0 6-11 23-4 11 1 2-2 1 1 1 40 4 1-2-21-36-3-4z" fill="#3A3B52"/>
<path transform="translate(441,552)" d="m0 0 3 1 6 11 11 19 10 16 1 3-39-3-12-2v-2h2l3-9 11-25 3-5zm0 5-13 29-3 6v4l28 3h15l-5-9-12-20-8-13z" fill="#3A3B52"/>
<path transform="translate(1330,691)" d="m0 0h5l2 7h2l2-3h5l4-4 4 1-2 7h2l1-8 4 2 2 5-1 6-7 1-5-1-4 1h-9l-4-1z" fill="#3A3B52"/>
<path transform="translate(1412,240)" d="m0 0 3 1 11 18 2 2v5l-5-5-9-15-8 17-8 18v2l30 3v3l-17-1-18-2v-3h2l1-5 13-29z" fill="#3A3B52"/>
<path transform="translate(1304,691)" d="m0 0 4 1 1 5h2l1-5h4l1 4h4l1-2h5l2 9-4 2h-19l-2-1-1-5v-7z" fill="#393A51"/>
<path transform="translate(1300,128)" d="m0 0 9 3 17 7 12 5 6 2v2l-7-1-15-6-18-7 4 16 6 28-1 4-2-2-8-37z" fill="#3A3B52"/>
<path transform="translate(476,419)" d="m0 0 4 2 11 44 1 1 10-13 18-22h2l-2 4-11 13-6 8-10 13-1 2h-2l-4-13-7-28z" fill="#393A51"/>
<path transform="translate(476,107)" d="m0 0 3 1 3 9 9 36 1 1 11-14 13-16 4-5h2l-2 4-13 16-8 10-7 10h-2l-4-13z" fill="#393A51"/>
<path transform="translate(1252,691)" d="m0 0 8 1 1 3 3 1v-2l-2-1 4-1 6 5-1 4h-2l-1 4-4-2-2-2-3 3h-9l-4-2 1-3h4z" fill="#3A3B52"/>
<path transform="translate(584,314)" d="m0 0 6 2 20 9 19 7v3l-29 31-3 5h-2l1-5 13-13 7-8 7-7 3-4-14-5-21-9-7-4z" fill="#3A3B52"/>
<path transform="translate(1242,720)" d="m0 0h5l4 3 10 4 19 1v-2l3 1-1 2h-2v2l-3 1-17 1-12-6-5-5z" fill="#3A3B52"/>
<path transform="translate(1352,37)" d="m0 0m-2 1h2l-1 3-37 15-6 3h-4l1-4 8-2 21-9z" fill="#393A51"/>
<path transform="translate(1427,14)" d="m0 0 1 3-18 9 18 10v3l-6-2-18-10v-2l16-8z" fill="#3A3B52"/>
<path transform="translate(1426,326)" d="m0 0h2l-1 4-16 7v2l17 9-1 3-16-8-7-5 3-1v-2z" fill="#3A3B52"/>
<path transform="translate(911,4)" d="m0 0 5 1 16 8 13 5 7 3-3 5h-3l2-3-10-4-16-7-11-6z" fill="#3A3B52"/>
<path transform="translate(474,415)" d="m0 0 7 1 23 9 16 4v2l-3 1-18-5-19-7-6-4z" fill="#3A3B52"/>
<path transform="translate(534,526)" d="m0 0m-34 1 1 3-1 3 29-6h5v2l-29 7-11 1 5-9z" fill="#393A51"/>
<path transform="translate(1291,694)" d="m0 0 8 1 1 2v7l-9 1-4-2 1-7z" fill="#393A51"/>
<path transform="translate(586,318)" d="m0 0 2 1 6 31 2 15-2 2-4-21-5-27z" fill="#3A3B52"/>
<path transform="translate(474,103)" d="m0 0 9 2 20 8 16 5v2l-7-1-27-9-10-5z" fill="#3A3B52"/>
<path transform="translate(520,431)" d="m0 0h2l-2 4-11 13-6 8-10 13-1 2h-2l1-4 11-14 9-11z" fill="#3A3B52"/>
<path transform="translate(1179,215)" d="m0 0m-6 1h6v2l-32 7h-5l2-5 3-2v3z" fill="#393A51"/>
<path transform="translate(1345,146)" d="m0 0 1 3-7 7-7 8-10 11-7 9h-2v-3h2l2-4 13-15 9-9z" fill="#3A3B52"/>
<path transform="translate(520,119)" d="m0 0h2l-2 4-13 16-8 10-7 10h-2l1-4 13-16 11-14z" fill="#3A3B52"/>
<path transform="translate(1166,434)" d="m0 0v3l-12 14-7 9-8 11h-2v-4l5-5 18-22z" fill="#3A3B52"/>
<path transform="translate(42,152)" d="m0 0v3l-11 12-7 8-8 10-2-1 2-4 11-12 7-8z" fill="#3A3B52"/>
<path transform="translate(42,464)" d="m0 0v3l-12 13-7 8-7 9-2-1 2-4 11-12 7-8z" fill="#3A3B52"/>
<path transform="translate(1279,693)" d="m0 0h5v11l-3 1-3-3z" fill="#3A3B52"/>
<path transform="translate(1247,690)" d="m0 0h2l-1 6-3 2v5l-4 1 1-6 3-7z" fill="#3A3B52"/>
</svg>
